CATALOG 4964808501021
FILE "King of Fighters '97, The (1997)(SNK)(M4)(Track 01 of 46).iso" BINARY
  TRACK 01 MODE1/2048
    INDEX 01 00:00:00
FILE "King of Fighters '97, The (1997)(SNK)(M4)(Track 02 of 46).wav" WAVE
  TRACK 02 AUDIO
    PREGAP 00:03:00
    INDEX 01 00:00:00
FILE "King of Fighters '97, The (1997)(SNK)(M4)(Track 03 of 46).wav" WAVE
  TRACK 03 AUDIO
    INDEX 00 00:00:00
    INDEX 01 00:02:00
FILE "King of Fighters '97, The (1997)(SNK)(M4)(Track 04 of 46).wav" WAVE
  TRACK 04 AUDIO
    INDEX 00 00:00:00
    INDEX 01 00:02:00
FILE "King of Fighters '97, The (1997)(SNK)(M4)(Track 05 of 46).wav" WAVE
  TRACK 05 AUDIO
    INDEX 00 00:00:00
    INDEX 01 00:02:00
FILE "King of Fighters '97, The (1997)(SNK)(M4)(Track 06 of 46).wav" WAVE
  TRACK 06 AUDIO
    INDEX 00 00:00:00
    INDEX 01 00:02:00
FILE "King of Fighters '97, The (1997)(SNK)(M4)(Track 07 of 46).wav" WAVE
  TRACK 07 AUDIO
    INDEX 00 00:00:00
    INDEX 01 00:02:00
FILE "King of Fighters '97, The (1997)(SNK)(M4)(Track 08 of 46).wav" WAVE
  TRACK 08 AUDIO
    INDEX 00 00:00:00
    INDEX 01 00:02:00
FILE "King of Fighters '97, The (1997)(SNK)(M4)(Track 09 of 46).wav" WAVE
  TRACK 09 AUDIO
    INDEX 00 00:00:00
    INDEX 01 00:02:00
FILE "King of Fighters '97, The (1997)(SNK)(M4)(Track 10 of 46).wav" WAVE
  TRACK 10 AUDIO
    INDEX 00 00:00:00
    INDEX 01 00:02:00
FILE "King of Fighters '97, The (1997)(SNK)(M4)(Track 11 of 46).wav" WAVE
  TRACK 11 AUDIO
    INDEX 00 00:00:00
    INDEX 01 00:02:00
FILE "King of Fighters '97, The (1997)(SNK)(M4)(Track 12 of 46).wav" WAVE
  TRACK 12 AUDIO
    INDEX 00 00:00:00
    INDEX 01 00:02:00
FILE "King of Fighters '97, The (1997)(SNK)(M4)(Track 13 of 46).wav" WAVE
  TRACK 13 AUDIO
    INDEX 00 00:00:00
    INDEX 01 00:02:00
FILE "King of Fighters '97, The (1997)(SNK)(M4)(Track 14 of 46).wav" WAVE
  TRACK 14 AUDIO
    INDEX 00 00:00:00
    INDEX 01 00:02:00
FILE "King of Fighters '97, The (1997)(SNK)(M4)(Track 15 of 46).wav" WAVE
  TRACK 15 AUDIO
    INDEX 00 00:00:00
    INDEX 01 00:02:00
FILE "King of Fighters '97, The (1997)(SNK)(M4)(Track 16 of 46).wav" WAVE
  TRACK 16 AUDIO
    INDEX 00 00:00:00
    INDEX 01 00:02:00
FILE "King of Fighters '97, The (1997)(SNK)(M4)(Track 17 of 46).wav" WAVE
  TRACK 17 AUDIO
    INDEX 00 00:00:00
    INDEX 01 00:02:00
FILE "King of Fighters '97, The (1997)(SNK)(M4)(Track 18 of 46).wav" WAVE
  TRACK 18 AUDIO
    INDEX 00 00:00:00
    INDEX 01 00:02:00
FILE "King of Fighters '97, The (1997)(SNK)(M4)(Track 19 of 46).wav" WAVE
  TRACK 19 AUDIO
    INDEX 00 00:00:00
    INDEX 01 00:02:00
FILE "King of Fighters '97, The (1997)(SNK)(M4)(Track 20 of 46).wav" WAVE
  TRACK 20 AUDIO
    INDEX 00 00:00:00
    INDEX 01 00:02:00
FILE "King of Fighters '97, The (1997)(SNK)(M4)(Track 21 of 46).wav" WAVE
  TRACK 21 AUDIO
    INDEX 00 00:00:00
    INDEX 01 00:02:00
FILE "King of Fighters '97, The (1997)(SNK)(M4)(Track 22 of 46).wav" WAVE
  TRACK 22 AUDIO
    INDEX 00 00:00:00
    INDEX 01 00:02:00
FILE "King of Fighters '97, The (1997)(SNK)(M4)(Track 23 of 46).wav" WAVE
  TRACK 23 AUDIO
    INDEX 00 00:00:00
    INDEX 01 00:02:00
FILE "King of Fighters '97, The (1997)(SNK)(M4)(Track 24 of 46).wav" WAVE
  TRACK 24 AUDIO
    INDEX 00 00:00:00
    INDEX 01 00:02:00
FILE "King of Fighters '97, The (1997)(SNK)(M4)(Track 25 of 46).wav" WAVE
  TRACK 25 AUDIO
    INDEX 00 00:00:00
    INDEX 01 00:02:00
FILE "King of Fighters '97, The (1997)(SNK)(M4)(Track 26 of 46).wav" WAVE
  TRACK 26 AUDIO
    INDEX 00 00:00:00
    INDEX 01 00:02:00
FILE "King of Fighters '97, The (1997)(SNK)(M4)(Track 27 of 46).wav" WAVE
  TRACK 27 AUDIO
    INDEX 00 00:00:00
    INDEX 01 00:02:00
FILE "King of Fighters '97, The (1997)(SNK)(M4)(Track 28 of 46).wav" WAVE
  TRACK 28 AUDIO
    INDEX 00 00:00:00
    INDEX 01 00:02:00
FILE "King of Fighters '97, The (1997)(SNK)(M4)(Track 29 of 46).wav" WAVE
  TRACK 29 AUDIO
    INDEX 00 00:00:00
    INDEX 01 00:02:00
FILE "King of Fighters '97, The (1997)(SNK)(M4)(Track 30 of 46).wav" WAVE
  TRACK 30 AUDIO
    INDEX 00 00:00:00
    INDEX 01 00:02:00
FILE "King of Fighters '97, The (1997)(SNK)(M4)(Track 31 of 46).wav" WAVE
  TRACK 31 AUDIO
    INDEX 00 00:00:00
    INDEX 01 00:02:00
FILE "King of Fighters '97, The (1997)(SNK)(M4)(Track 32 of 46).wav" WAVE
  TRACK 32 AUDIO
    INDEX 00 00:00:00
    INDEX 01 00:02:00
FILE "King of Fighters '97, The (1997)(SNK)(M4)(Track 33 of 46).wav" WAVE
  TRACK 33 AUDIO
    INDEX 00 00:00:00
    INDEX 01 00:02:00
FILE "King of Fighters '97, The (1997)(SNK)(M4)(Track 34 of 46).wav" WAVE
  TRACK 34 AUDIO
    INDEX 00 00:00:00
    INDEX 01 00:02:00
FILE "King of Fighters '97, The (1997)(SNK)(M4)(Track 35 of 46).wav" WAVE
  TRACK 35 AUDIO
    INDEX 00 00:00:00
    INDEX 01 00:02:00
FILE "King of Fighters '97, The (1997)(SNK)(M4)(Track 36 of 46).wav" WAVE
  TRACK 36 AUDIO
    INDEX 00 00:00:00
    INDEX 01 00:02:00
FILE "King of Fighters '97, The (1997)(SNK)(M4)(Track 37 of 46).wav" WAVE
  TRACK 37 AUDIO
    INDEX 00 00:00:00
    INDEX 01 00:02:00
FILE "King of Fighters '97, The (1997)(SNK)(M4)(Track 38 of 46).wav" WAVE
  TRACK 38 AUDIO
    INDEX 00 00:00:00
    INDEX 01 00:02:00
FILE "King of Fighters '97, The (1997)(SNK)(M4)(Track 39 of 46).wav" WAVE
  TRACK 39 AUDIO
    INDEX 00 00:00:00
    INDEX 01 00:02:00
FILE "King of Fighters '97, The (1997)(SNK)(M4)(Track 40 of 46).wav" WAVE
  TRACK 40 AUDIO
    INDEX 00 00:00:00
    INDEX 01 00:02:00
FILE "King of Fighters '97, The (1997)(SNK)(M4)(Track 41 of 46).wav" WAVE
  TRACK 41 AUDIO
    INDEX 00 00:00:00
    INDEX 01 00:02:00
FILE "King of Fighters '97, The (1997)(SNK)(M4)(Track 42 of 46).wav" WAVE
  TRACK 42 AUDIO
    INDEX 00 00:00:00
    INDEX 01 00:02:00
FILE "King of Fighters '97, The (1997)(SNK)(M4)(Track 43 of 46).wav" WAVE
  TRACK 43 AUDIO
    INDEX 00 00:00:00
    INDEX 01 00:02:00
FILE "King of Fighters '97, The (1997)(SNK)(M4)(Track 44 of 46).wav" WAVE
  TRACK 44 AUDIO
    INDEX 00 00:00:00
    INDEX 01 00:02:00
FILE "King of Fighters '97, The (1997)(SNK)(M4)(Track 45 of 46).wav" WAVE
  TRACK 45 AUDIO
    INDEX 00 00:00:00
    INDEX 01 00:02:00
FILE "King of Fighters '97, The (1997)(SNK)(M4)(Track 46 of 46).wav" WAVE
  TRACK 46 AUDIO
    INDEX 00 00:00:00
    INDEX 01 00:02:00
